<mxfile host="app.diagrams.net" agent="Mozilla/5.0 (Windows NT 10.0; Win64; x64) AppleWebKit/537.36 (KHTML, like Gecko) Chrome/132.0.0.0 Safari/537.36" version="24.8.4">
  <diagram name="第 1 页" id="wVwWxJFc4_GsOSkCphnT">
    <mxGraphModel dx="1434" dy="738" grid="0" gridSize="10" guides="1" tooltips="1" connect="1" arrows="1" fold="1" page="1" pageScale="1" pageWidth="827" pageHeight="1169" math="1" shadow="0">
      <root>
        <mxCell id="0" />
        <mxCell id="1" parent="0" />
        <mxCell id="Ojy7x7tEf_kukIFs0Lf7-22" value="" style="rounded=0;whiteSpace=wrap;html=1;dashed=1;" vertex="1" parent="1">
          <mxGeometry x="463" y="99" width="816" height="321" as="geometry" />
        </mxCell>
        <mxCell id="Ojy7x7tEf_kukIFs0Lf7-23" value="" style="rounded=0;whiteSpace=wrap;html=1;dashed=1;fillColor=#008000;" vertex="1" parent="1">
          <mxGeometry x="464" y="97" width="242" height="323" as="geometry" />
        </mxCell>
        <mxCell id="yJfC__kDdg9jGKbbYTFM-1" value="" style="endArrow=none;html=1;rounded=0;" parent="1" edge="1">
          <mxGeometry width="50" height="50" relative="1" as="geometry">
            <mxPoint x="614" y="422" as="sourcePoint" />
            <mxPoint x="1064" y="422" as="targetPoint" />
          </mxGeometry>
        </mxCell>
        <mxCell id="yJfC__kDdg9jGKbbYTFM-3" value="" style="endArrow=none;html=1;rounded=0;" parent="1" edge="1">
          <mxGeometry width="50" height="50" relative="1" as="geometry">
            <mxPoint x="707" y="532" as="sourcePoint" />
            <mxPoint x="707" y="132" as="targetPoint" />
          </mxGeometry>
        </mxCell>
        <mxCell id="yJfC__kDdg9jGKbbYTFM-4" value="" style="endArrow=none;html=1;rounded=0;" parent="1" edge="1">
          <mxGeometry width="50" height="50" relative="1" as="geometry">
            <mxPoint x="978" y="532" as="sourcePoint" />
            <mxPoint x="978" y="132" as="targetPoint" />
          </mxGeometry>
        </mxCell>
        <mxCell id="yJfC__kDdg9jGKbbYTFM-6" value="&lt;font style=&quot;font-size: 15px;&quot;&gt;$$Stage：Y_{1}$$&lt;/font&gt;" style="text;html=1;align=center;verticalAlign=middle;resizable=0;points=[];autosize=1;strokeColor=none;fillColor=none;" parent="1" vertex="1">
          <mxGeometry x="659" y="102" width="150" height="30" as="geometry" />
        </mxCell>
        <mxCell id="yJfC__kDdg9jGKbbYTFM-7" value="&lt;font style=&quot;font-size: 15px;&quot;&gt;$$Money：Y_{2}$$&lt;/font&gt;" style="text;html=1;align=center;verticalAlign=middle;resizable=0;points=[];autosize=1;strokeColor=none;fillColor=none;" parent="1" vertex="1">
          <mxGeometry x="859" y="102" width="150" height="30" as="geometry" />
        </mxCell>
        <mxCell id="yJfC__kDdg9jGKbbYTFM-8" value="&lt;b&gt;QFLP（Qualified Foreign Limited Partner）&lt;/b&gt;" style="text;html=1;align=left;verticalAlign=middle;resizable=0;points=[];autosize=1;strokeColor=none;fillColor=none;" parent="1" vertex="1">
          <mxGeometry x="136" y="16" width="270" height="30" as="geometry" />
        </mxCell>
        <mxCell id="yJfC__kDdg9jGKbbYTFM-9" value="" style="endArrow=none;html=1;rounded=0;strokeWidth=2;" parent="1" edge="1">
          <mxGeometry width="50" height="50" relative="1" as="geometry">
            <mxPoint x="707" y="392" as="sourcePoint" />
            <mxPoint x="717" y="392" as="targetPoint" />
          </mxGeometry>
        </mxCell>
        <mxCell id="yJfC__kDdg9jGKbbYTFM-10" value="" style="endArrow=none;html=1;rounded=0;strokeWidth=2;" parent="1" edge="1">
          <mxGeometry width="50" height="50" relative="1" as="geometry">
            <mxPoint x="707" y="353" as="sourcePoint" />
            <mxPoint x="717" y="353" as="targetPoint" />
          </mxGeometry>
        </mxCell>
        <mxCell id="yJfC__kDdg9jGKbbYTFM-11" value="" style="endArrow=none;html=1;rounded=0;strokeWidth=2;" parent="1" edge="1">
          <mxGeometry width="50" height="50" relative="1" as="geometry">
            <mxPoint x="707" y="313" as="sourcePoint" />
            <mxPoint x="717" y="313" as="targetPoint" />
          </mxGeometry>
        </mxCell>
        <mxCell id="yJfC__kDdg9jGKbbYTFM-12" value="" style="endArrow=none;html=1;rounded=0;strokeWidth=2;" parent="1" edge="1">
          <mxGeometry width="50" height="50" relative="1" as="geometry">
            <mxPoint x="707" y="273" as="sourcePoint" />
            <mxPoint x="717" y="273" as="targetPoint" />
          </mxGeometry>
        </mxCell>
        <mxCell id="yJfC__kDdg9jGKbbYTFM-13" value="" style="endArrow=none;html=1;rounded=0;strokeWidth=2;" parent="1" edge="1">
          <mxGeometry width="50" height="50" relative="1" as="geometry">
            <mxPoint x="707" y="233" as="sourcePoint" />
            <mxPoint x="717" y="233" as="targetPoint" />
          </mxGeometry>
        </mxCell>
        <mxCell id="yJfC__kDdg9jGKbbYTFM-14" value="" style="endArrow=none;html=1;rounded=0;strokeWidth=2;" parent="1" edge="1">
          <mxGeometry width="50" height="50" relative="1" as="geometry">
            <mxPoint x="978" y="393" as="sourcePoint" />
            <mxPoint x="988" y="393" as="targetPoint" />
          </mxGeometry>
        </mxCell>
        <mxCell id="yJfC__kDdg9jGKbbYTFM-15" value="" style="endArrow=none;html=1;rounded=0;strokeWidth=2;" parent="1" edge="1">
          <mxGeometry width="50" height="50" relative="1" as="geometry">
            <mxPoint x="978" y="354" as="sourcePoint" />
            <mxPoint x="988" y="354" as="targetPoint" />
          </mxGeometry>
        </mxCell>
        <mxCell id="yJfC__kDdg9jGKbbYTFM-16" value="" style="endArrow=none;html=1;rounded=0;strokeWidth=2;" parent="1" edge="1">
          <mxGeometry width="50" height="50" relative="1" as="geometry">
            <mxPoint x="978" y="314" as="sourcePoint" />
            <mxPoint x="988" y="314" as="targetPoint" />
          </mxGeometry>
        </mxCell>
        <mxCell id="yJfC__kDdg9jGKbbYTFM-17" value="" style="endArrow=none;html=1;rounded=0;strokeWidth=2;" parent="1" edge="1">
          <mxGeometry width="50" height="50" relative="1" as="geometry">
            <mxPoint x="978" y="274" as="sourcePoint" />
            <mxPoint x="988" y="274" as="targetPoint" />
          </mxGeometry>
        </mxCell>
        <mxCell id="yJfC__kDdg9jGKbbYTFM-18" value="" style="endArrow=none;html=1;rounded=0;strokeWidth=2;" parent="1" edge="1">
          <mxGeometry width="50" height="50" relative="1" as="geometry">
            <mxPoint x="978" y="234" as="sourcePoint" />
            <mxPoint x="988" y="234" as="targetPoint" />
          </mxGeometry>
        </mxCell>
        <mxCell id="yJfC__kDdg9jGKbbYTFM-21" value="&lt;font style=&quot;font-size: 15px;&quot;&gt;$$Policy：X$$&lt;/font&gt;" style="text;html=1;align=center;verticalAlign=middle;resizable=0;points=[];autosize=1;strokeColor=none;fillColor=none;" parent="1" vertex="1">
          <mxGeometry x="1051" y="416" width="120" height="30" as="geometry" />
        </mxCell>
        <mxCell id="yJfC__kDdg9jGKbbYTFM-24" value="&lt;font style=&quot;font-size: 15px;&quot;&gt;$$M_1$$&lt;/font&gt;" style="text;html=1;align=center;verticalAlign=middle;resizable=0;points=[];autosize=1;strokeColor=none;fillColor=none;" parent="1" vertex="1">
          <mxGeometry x="621" y="362" width="90" height="30" as="geometry" />
        </mxCell>
        <mxCell id="yJfC__kDdg9jGKbbYTFM-25" value="&lt;font style=&quot;font-size: 15px;&quot;&gt;$$M_2$$&lt;/font&gt;" style="text;html=1;align=center;verticalAlign=middle;resizable=0;points=[];autosize=1;strokeColor=none;fillColor=none;" parent="1" vertex="1">
          <mxGeometry x="799" y="362" width="90" height="30" as="geometry" />
        </mxCell>
        <mxCell id="yJfC__kDdg9jGKbbYTFM-26" value="&lt;font style=&quot;font-size: 15px;&quot;&gt;$$M_3$$&lt;/font&gt;" style="text;html=1;align=center;verticalAlign=middle;resizable=0;points=[];autosize=1;strokeColor=none;fillColor=none;" parent="1" vertex="1">
          <mxGeometry x="977" y="371" width="90" height="30" as="geometry" />
        </mxCell>
        <mxCell id="Ojy7x7tEf_kukIFs0Lf7-1" value="" style="curved=1;endArrow=classic;html=1;rounded=0;" edge="1" parent="1" source="yJfC__kDdg9jGKbbYTFM-23">
          <mxGeometry width="50" height="50" relative="1" as="geometry">
            <mxPoint x="1034" y="412" as="sourcePoint" />
            <mxPoint x="654" y="412" as="targetPoint" />
            <Array as="points">
              <mxPoint x="804" y="362" />
              <mxPoint x="734" y="382" />
            </Array>
          </mxGeometry>
        </mxCell>
        <mxCell id="Ojy7x7tEf_kukIFs0Lf7-2" value="&lt;div&gt;&lt;b&gt;科目：数量经济学&lt;/b&gt;&lt;/div&gt;&lt;div&gt;&lt;b&gt;&lt;br&gt;&lt;/b&gt;&lt;/div&gt;&lt;div&gt;&lt;b&gt;时间：&lt;/b&gt;11.20（根据您的能力越早越好吧）&lt;/div&gt;&lt;div&gt;&lt;b&gt;&lt;br&gt;&lt;/b&gt;&lt;/div&gt;&lt;div&gt;&lt;b&gt;要求：&lt;/b&gt;1分主体讨论，比如本土风投机构、企业、&lt;/div&gt;&lt;div&gt;外国优秀风投机构角度建模。2模型能够反映出&lt;/div&gt;&lt;div&gt;主回归基本结果，并将三个机制嵌套在内。&lt;/div&gt;&lt;div&gt;反映出X和Y，以及X-M（机制）-Y的过程。&lt;/div&gt;&lt;div&gt;【具体研究内容见下方图片】&lt;/div&gt;&lt;div&gt;&lt;b&gt;&lt;br&gt;&lt;/b&gt;&lt;/div&gt;&lt;div&gt;&lt;b&gt;学历：&lt;/b&gt;博士&lt;/div&gt;" style="text;html=1;align=left;verticalAlign=middle;resizable=0;points=[];autosize=1;strokeColor=none;fillColor=none;" vertex="1" parent="1">
          <mxGeometry x="20" y="20" width="280" height="170" as="geometry" />
        </mxCell>
        <mxCell id="Ojy7x7tEf_kukIFs0Lf7-3" value="" style="endArrow=none;html=1;rounded=0;" edge="1" parent="1">
          <mxGeometry width="50" height="50" relative="1" as="geometry">
            <mxPoint x="53" y="186" as="sourcePoint" />
            <mxPoint x="93" y="186" as="targetPoint" />
          </mxGeometry>
        </mxCell>
        <mxCell id="yJfC__kDdg9jGKbbYTFM-23" value="" style="ellipse;whiteSpace=wrap;html=1;aspect=fixed;fillColor=#3333FF;" parent="1" vertex="1">
          <mxGeometry x="830" y="356" width="10" height="10" as="geometry" />
        </mxCell>
        <mxCell id="Ojy7x7tEf_kukIFs0Lf7-24" value="" style="rounded=0;whiteSpace=wrap;html=1;dashed=1;fillColor=#008000;" vertex="1" parent="1">
          <mxGeometry x="979" y="97" width="242" height="323" as="geometry" />
        </mxCell>
        <mxCell id="Ojy7x7tEf_kukIFs0Lf7-5" value="" style="curved=1;endArrow=classic;html=1;rounded=0;exitX=1;exitY=0.5;exitDx=0;exitDy=0;" edge="1" parent="1" source="yJfC__kDdg9jGKbbYTFM-23">
          <mxGeometry width="50" height="50" relative="1" as="geometry">
            <mxPoint x="1034" y="412" as="sourcePoint" />
            <mxPoint x="1034" y="412" as="targetPoint" />
            <Array as="points">
              <mxPoint x="874" y="362" />
              <mxPoint x="952" y="380" />
            </Array>
          </mxGeometry>
        </mxCell>
        <mxCell id="Ojy7x7tEf_kukIFs0Lf7-7" value="&lt;div&gt;&lt;span style=&quot;background-color: initial;&quot;&gt;&lt;b&gt;&lt;font style=&quot;font-size: 18px;&quot;&gt;③、&lt;/font&gt;&lt;/b&gt; &lt;b&gt;M3 增值服务：&lt;/b&gt;QFLP试点，&lt;/span&gt;&lt;/div&gt;&lt;div&gt;&lt;span style=&quot;background-color: initial;&quot;&gt;具有优秀投资经验的国外风投机&lt;/span&gt;&lt;/div&gt;&lt;div&gt;&lt;span style=&quot;background-color: initial;&quot;&gt;构进入中国市场，使&lt;/span&gt;&lt;span style=&quot;background-color: initial;&quot;&gt;得本土风投&lt;/span&gt;&lt;/div&gt;&lt;div&gt;&lt;span style=&quot;background-color: initial;&quot;&gt;机构能够学到更多非财务支持技&lt;/span&gt;&lt;/div&gt;&lt;div&gt;&lt;span style=&quot;background-color: initial;&quot;&gt;能,也就是风投可以为企业提供一&lt;/span&gt;&lt;/div&gt;&lt;div&gt;&lt;span style=&quot;background-color: initial;&quot;&gt;些非财务支持，&lt;/span&gt;&lt;span style=&quot;background-color: initial;&quot;&gt;比如为企业提供人&lt;/span&gt;&lt;/div&gt;&lt;div&gt;&lt;span style=&quot;background-color: initial;&quot;&gt;脉资源、上市辅导、战略管理等，&lt;/span&gt;&lt;/div&gt;&lt;div&gt;&lt;span style=&quot;background-color: initial;&quot;&gt;从而抵消掉部分需要投入的资金，&lt;/span&gt;&lt;/div&gt;&lt;div&gt;&lt;span style=&quot;background-color: initial;&quot;&gt;表现&lt;/span&gt;&lt;span style=&quot;background-color: initial;&quot;&gt;为投资金额下降。&lt;/span&gt;&lt;/div&gt;&lt;div&gt;&lt;b&gt;【QFLP--非财务支持增加，这种非&lt;/b&gt;&lt;/div&gt;&lt;div&gt;&lt;b&gt;财务支持增加可以抵消或者替代财务&lt;/b&gt;&lt;/div&gt;&lt;div&gt;&lt;b&gt;支持一一降低投&lt;/b&gt;&lt;b style=&quot;background-color: initial;&quot;&gt;资金额，表现为 money 下降】&lt;/b&gt;&lt;/div&gt;" style="text;html=1;align=left;verticalAlign=middle;resizable=0;points=[];autosize=1;strokeColor=none;fillColor=none;" vertex="1" parent="1">
          <mxGeometry x="1024" y="141" width="267" height="192" as="geometry" />
        </mxCell>
        <mxCell id="Ojy7x7tEf_kukIFs0Lf7-8" value="&lt;div&gt;&lt;font style=&quot;font-size: 18px;&quot;&gt;&lt;b style=&quot;&quot;&gt;①、&lt;/b&gt;&lt;/font&gt;&lt;font style=&quot;font-size: 12px;&quot;&gt;&lt;font style=&quot;&quot;&gt;&lt;b&gt;M1 价值发现：&lt;/b&gt;QFLP试点，&lt;/font&gt;&lt;/font&gt;&lt;/div&gt;&lt;div&gt;&lt;font style=&quot;font-size: 12px;&quot;&gt;&lt;span style=&quot;background-color: initial;&quot;&gt;具&lt;/span&gt;&lt;/font&gt;&lt;span style=&quot;background-color: initial;&quot;&gt;有优秀投资经验的国外风投机&lt;/span&gt;&lt;/div&gt;&lt;div&gt;&lt;span style=&quot;background-color: initial;&quot;&gt;构&lt;/span&gt;&lt;font style=&quot;background-color: initial;&quot;&gt;进入中国市场，使&lt;/font&gt;&lt;span style=&quot;background-color: initial;&quot;&gt;得本土风投&lt;/span&gt;&lt;/div&gt;&lt;div&gt;&lt;span style=&quot;background-color: initial;&quot;&gt;机&lt;/span&gt;&lt;span style=&quot;background-color: initial;&quot;&gt;构&lt;/span&gt;&lt;span style=&quot;background-color: initial;&quot;&gt;有好的学习范本，能够发现&lt;/span&gt;&lt;/div&gt;&lt;div&gt;&lt;span style=&quot;background-color: initial;&quot;&gt;早&lt;/span&gt;&lt;span style=&quot;background-color: initial;&quot;&gt;期&lt;/span&gt;&lt;span style=&quot;background-color: initial;&quot;&gt;初创企业内在投资价值，进&lt;/span&gt;&lt;/div&gt;&lt;div&gt;&lt;span style=&quot;background-color: initial;&quot;&gt;而&lt;/span&gt;&lt;span style=&quot;background-color: initial;&quot;&gt;引导本土风投&lt;/span&gt;&lt;span style=&quot;background-color: initial;&quot;&gt;机构在初创企业&lt;/span&gt;&lt;/div&gt;&lt;div&gt;&lt;span style=&quot;background-color: initial;&quot;&gt;发&lt;/span&gt;&lt;span style=&quot;background-color: initial;&quot;&gt;展早期开始投资。&lt;/span&gt;&lt;/div&gt;&lt;div&gt;&lt;font style=&quot;font-size: 12px;&quot;&gt;&lt;b&gt;【QFLP-一本土机构价值发现能&lt;/b&gt;&lt;/font&gt;&lt;/div&gt;&lt;div&gt;&lt;b&gt;&lt;font style=&quot;font-size: 12px;&quot;&gt;力提升&lt;/font&gt;&lt;span style=&quot;background-color: initial;&quot;&gt;一一往前投资，表现为stage下降】&lt;/span&gt;&lt;/b&gt;&lt;/div&gt;" style="text;html=1;align=left;verticalAlign=middle;resizable=0;points=[];autosize=1;strokeColor=none;fillColor=none;" vertex="1" parent="1">
          <mxGeometry x="472" y="151" width="241" height="149" as="geometry" />
        </mxCell>
        <mxCell id="Ojy7x7tEf_kukIFs0Lf7-9" value="&lt;div&gt;&lt;font style=&quot;font-size: 18px;&quot;&gt;&lt;b&gt;②、&lt;/b&gt;&lt;/font&gt;&lt;b&gt;M2 监督效能：&lt;/b&gt;QFLP试点，&lt;/div&gt;&lt;div&gt;具有优秀投资经验的国外风投机&lt;/div&gt;&lt;div&gt;构进入中国市场，使&lt;span style=&quot;background-color: initial;&quot;&gt;得本土风投&lt;/span&gt;&lt;/div&gt;&lt;div&gt;&lt;span style=&quot;background-color: initial;&quot;&gt;机构有好的学习范本，推动本土&lt;/span&gt;&lt;/div&gt;&lt;div&gt;&lt;span style=&quot;background-color: initial;&quot;&gt;风投机构采用分期投资来控制道&lt;/span&gt;&lt;/div&gt;&lt;div&gt;&lt;span style=&quot;background-color: initial;&quot;&gt;德风险。&lt;/span&gt;&lt;/div&gt;&lt;div&gt;&lt;b&gt;【QFLP-一本土机构监督能力提&lt;/b&gt;&lt;/div&gt;&lt;div&gt;&lt;b&gt;升&lt;span style=&quot;background-color: initial;&quot;&gt;一一分期投资，降低每轮投资金额，&lt;/span&gt;&lt;/b&gt;&lt;/div&gt;&lt;div&gt;&lt;b&gt;表现为money下降】&lt;/b&gt;&lt;/div&gt;" style="text;html=1;align=left;verticalAlign=middle;resizable=0;points=[];autosize=1;strokeColor=none;fillColor=none;" vertex="1" parent="1">
          <mxGeometry x="760" y="151" width="222" height="149" as="geometry" />
        </mxCell>
        <mxCell id="Ojy7x7tEf_kukIFs0Lf7-12" value="&lt;span style=&quot;&quot;&gt;参考文献：①、 Investor attention, overconfidence&lt;/span&gt;&lt;div style=&quot;&quot;&gt;&amp;nbsp; &amp;nbsp; &amp;nbsp; &amp;nbsp; &amp;nbsp; &amp;nbsp; &amp;nbsp; &amp;nbsp; &amp;nbsp; ②、Strategic decertification in venture capital&lt;/div&gt;&lt;div style=&quot;&quot;&gt;&amp;nbsp; &amp;nbsp; &amp;nbsp; &amp;nbsp; &amp;nbsp; &amp;nbsp; &amp;nbsp; &amp;nbsp; &amp;nbsp; ③、Optimal investment and exit decision of venture capitals with&amp;nbsp;&lt;/div&gt;" style="text;html=1;align=left;verticalAlign=middle;resizable=0;points=[];autosize=1;strokeColor=none;fillColor=none;" vertex="1" parent="1">
          <mxGeometry x="44" y="484" width="426" height="55" as="geometry" />
        </mxCell>
        <mxCell id="Ojy7x7tEf_kukIFs0Lf7-15" value="" style="endArrow=classic;html=1;rounded=0;strokeWidth=2;strokeColor=#FFFFFF;" edge="1" parent="1">
          <mxGeometry width="50" height="50" relative="1" as="geometry">
            <mxPoint x="683" y="401" as="sourcePoint" />
            <mxPoint x="683" y="330" as="targetPoint" />
          </mxGeometry>
        </mxCell>
        <mxCell id="Ojy7x7tEf_kukIFs0Lf7-16" value="" style="endArrow=classic;html=1;rounded=0;strokeWidth=2;strokeColor=#FFFFFF;" edge="1" parent="1">
          <mxGeometry width="50" height="50" relative="1" as="geometry">
            <mxPoint x="1006" y="400.5" as="sourcePoint" />
            <mxPoint x="1006" y="329.5" as="targetPoint" />
          </mxGeometry>
        </mxCell>
        <mxCell id="Ojy7x7tEf_kukIFs0Lf7-17" value="&lt;b&gt;&lt;font color=&quot;#ffffff&quot;&gt;效&lt;/font&gt;&lt;/b&gt;&lt;div&gt;&lt;b&gt;&lt;font color=&quot;#ffffff&quot;&gt;用&lt;/font&gt;&lt;/b&gt;&lt;/div&gt;&lt;div&gt;&lt;b&gt;&lt;font color=&quot;#ffffff&quot;&gt;上&lt;/font&gt;&lt;/b&gt;&lt;/div&gt;&lt;div&gt;&lt;b&gt;&lt;font color=&quot;#ffffff&quot;&gt;升&lt;/font&gt;&lt;/b&gt;&lt;/div&gt;" style="text;html=1;align=center;verticalAlign=middle;resizable=0;points=[];autosize=1;strokeColor=none;fillColor=none;" vertex="1" parent="1">
          <mxGeometry x="651" y="292" width="30" height="70" as="geometry" />
        </mxCell>
        <mxCell id="Ojy7x7tEf_kukIFs0Lf7-18" value="&lt;b&gt;&lt;font color=&quot;#ffffff&quot;&gt;效&lt;/font&gt;&lt;/b&gt;&lt;div&gt;&lt;b&gt;&lt;font color=&quot;#ffffff&quot;&gt;用&lt;/font&gt;&lt;/b&gt;&lt;/div&gt;&lt;div&gt;&lt;b&gt;&lt;font color=&quot;#ffffff&quot;&gt;上&lt;/font&gt;&lt;/b&gt;&lt;/div&gt;&lt;div&gt;&lt;b&gt;&lt;font color=&quot;#ffffff&quot;&gt;升&lt;/font&gt;&lt;/b&gt;&lt;/div&gt;" style="text;html=1;align=center;verticalAlign=middle;resizable=0;points=[];autosize=1;strokeColor=none;fillColor=none;" vertex="1" parent="1">
          <mxGeometry x="1000" y="298" width="30" height="70" as="geometry" />
        </mxCell>
        <mxCell id="Ojy7x7tEf_kukIFs0Lf7-19" value="&lt;b&gt;&lt;font color=&quot;#3333ff&quot;&gt;三篇引用文章主要介绍了：&lt;/font&gt;&lt;/b&gt;①、国外风投成熟的经验（数学工具模型的应用），数学工具的必然性是——万物皆数。&lt;div&gt;&amp;nbsp; &amp;nbsp; &amp;nbsp; &amp;nbsp; &amp;nbsp; &amp;nbsp; &amp;nbsp; &amp;nbsp; &amp;nbsp; &amp;nbsp; &amp;nbsp; &amp;nbsp; &amp;nbsp; &amp;nbsp; &amp;nbsp; &amp;nbsp; &amp;nbsp; &amp;nbsp; &amp;nbsp; &amp;nbsp; &amp;nbsp; &amp;nbsp;②、人体生理客观缺陷的承认及其对资产信息价值评估的影响——专注度=信息价值的响应力&lt;/div&gt;&lt;div&gt;&amp;nbsp; &amp;nbsp; &amp;nbsp; &amp;nbsp; &amp;nbsp; &amp;nbsp; &amp;nbsp; &amp;nbsp; &amp;nbsp; &amp;nbsp; &amp;nbsp; &amp;nbsp; &amp;nbsp; &amp;nbsp; &amp;nbsp; &amp;nbsp; &amp;nbsp; &amp;nbsp; &amp;nbsp; &amp;nbsp; &amp;nbsp; &amp;nbsp;③、结合工具及投资者的沉稳，让整个风投过程中的策略效应最大化。——纳什均衡&lt;/div&gt;" style="text;html=1;align=left;verticalAlign=middle;resizable=0;points=[];autosize=1;strokeColor=none;fillColor=none;" vertex="1" parent="1">
          <mxGeometry x="61" y="539" width="648" height="55" as="geometry" />
        </mxCell>
      </root>
    </mxGraphModel>
  </diagram>
</mxfile>
